<svg width="70" height="24" viewBox="0 0 70 24" fill="none" xmlns="http://www.w3.org/2000/svg">
<path d="M17.0386 2.66943C16.5232 3.2166 16.3188 3.9444 16.3188 4.57369V15.1408L5.32759 0.640988H0.683594V23.964H5.65489L5.58969 8.92241L17.0043 23.964H21.2883V18.4534V0.626386C20.7404 0.765026 18.3243 1.36876 17.0386 2.66943ZM33.5943 20.1881C30.4857 20.1881 27.981 18.5609 27.981 14.7431C27.981 12.0945 29.7912 9.99132 32.2488 9.99132C33.8963 9.99132 35.0807 10.5094 36.3919 11.6531L39.2182 8.60686C37.4424 6.78458 35.3701 5.72471 32.3157 5.72471C26.9285 5.72471 23.1147 9.85265 23.1147 14.7431C23.1147 20.7189 27.2704 23.964 32.0896 23.964C34.3158 23.964 36.3502 23.5226 37.8386 22.6798C38.334 22.3697 38.3937 21.9173 38.3937 21.4121V18.9969C36.8186 19.7631 35.1422 20.1881 33.5943 20.1881ZM51.7792 13.5137C51.584 11.1186 50.2927 9.51709 48.0015 9.51709C46.0141 9.51709 44.3867 11.1515 44.195 13.5137H51.7792ZM56.4142 15.1955C56.4142 15.5914 56.4142 15.8558 56.3382 16.4103H44.2871C44.8116 19.0863 47.1534 20.2301 49.7611 20.2301C51.2947 20.2301 52.9855 19.8105 54.5442 19.0499V21.381C54.5442 21.8808 54.4864 22.3296 53.9981 22.6361C52.5315 23.4714 50.4827 23.9092 48.262 23.9092C43.5041 23.9092 39.5348 20.6532 39.4642 14.9054C39.4642 9.71592 42.6922 5.82503 47.9365 5.82503C53.6401 5.82503 56.3726 9.94755 56.4142 15.1955ZM58.3582 23.9166H62.7344V0.19043C62.2533 0.312646 60.1249 0.84528 58.9929 1.99082C58.5389 2.4724 58.3582 3.11447 58.3582 3.669V23.9166ZM65.2427 23.9166H69.6189V0.19043C69.1378 0.312646 67.0094 0.84528 65.8774 1.99082C65.4234 2.4724 65.2427 3.11447 65.2427 3.669V23.9166Z" fill="white"/>
</svg>
